HIERARCHY
ROOT root
{
	OFFSET	0	13.1	24.9
	CHANNELS 6  Xposition Yposition Zposition Xrotation Yrotation Zrotation
	JOINT spine_1
	{
		OFFSET	0	9.99999	0
		CHANNELS 3  Xrotation Yrotation Zrotation
		JOINT spine_2
		{
			OFFSET	0	112	-10
			CHANNELS 3  Xrotation Yrotation Zrotation
			JOINT spine_3
			{
				OFFSET	0	206.5	19.3
				CHANNELS 3  Xrotation Yrotation Zrotation
				JOINT spine_4
				{
					OFFSET	0	110.4	14.6
					CHANNELS 3  Xrotation Yrotation Zrotation
					JOINT neck_1
					{
						OFFSET	0	71.8	-50.3
						CHANNELS 3  Xrotation Yrotation Zrotation
						JOINT neck_2
						{
							OFFSET	0	86.2	-25.8
							CHANNELS 3  Xrotation Yrotation Zrotation
							JOINT head_ee
							{
								OFFSET	0	179.8	-8.7
								CHANNELS 3  Xrotation Yrotation Zrotation
								End Site
								{
									OFFSET	1	0	0
								}
							}
						}
					}
					JOINT left_clavicle
					{
						OFFSET	-43.2	22.4	-70.8
						CHANNELS 3  Xrotation Yrotation Zrotation
						JOINT left_shoulder
						{
							OFFSET	-93.9	-5.79999	48.7
							CHANNELS 3  Xrotation Yrotation Zrotation
							JOINT left_elbow
							{
								OFFSET	-291.4	-30.8	15.2
								CHANNELS 3  Xrotation Yrotation Zrotation
								JOINT left_lowarm_twist
								{
									OFFSET	-110.7	-3.89999	13.6
									CHANNELS 3  Xrotation Yrotation Zrotation
									JOINT left_hand
									{
										OFFSET	-110.7	-3.89999	13.6
										CHANNELS 3  Xrotation Yrotation Zrotation
										JOINT left_ee
										{
											OFFSET	-80.8	-5.10001	12.1
											CHANNELS 3  Xrotation Yrotation Zrotation
											End Site
											{
												OFFSET	1	0	0
											}
										}
									}
								}
							}
						}
					}
					JOINT right_clavicle
					{
						OFFSET	43.2	22.4	-70.8
						CHANNELS 3  Xrotation Yrotation Zrotation
						JOINT right_shoulder
						{
							OFFSET	93.9	-5.79999	48.7
							CHANNELS 3  Xrotation Yrotation Zrotation
							JOINT right_elbow
							{
								OFFSET	291.4	-30.8	15.2
								CHANNELS 3  Xrotation Yrotation Zrotation
								JOINT right_lowarm_twist
								{
									OFFSET	110.7	-3.89999	13.6
									CHANNELS 3  Xrotation Yrotation Zrotation
									JOINT right_hand
									{
										OFFSET	110.7	-3.89999	13.6
										CHANNELS 3  Xrotation Yrotation Zrotation
										JOINT right_ee
										{
											OFFSET	80.8	-5.10001	12.1
											CHANNELS 3  Xrotation Yrotation Zrotation
											End Site
											{
												OFFSET	1	0	0
											}
										}
									}
								}
							}
						}
					}
				}
			}
		}
	}
	JOINT left_hip
	{
		OFFSET	-82.8	-127.5	0.300001
		CHANNELS 3  Xrotation Yrotation Zrotation
		JOINT left_knee
		{
			OFFSET	-28.2	-396.7	2.2
			CHANNELS 3  Xrotation Yrotation Zrotation
			JOINT left_ankle
			{
				OFFSET	-11.7	-411.3	35.4
				CHANNELS 3  Xrotation Yrotation Zrotation
				JOINT left_toes
				{
					OFFSET	0	-60	-88.6
					CHANNELS 3  Xrotation Yrotation Zrotation
					JOINT left_foot_ee
					{
						OFFSET	-22.5	-16.5	-42.2
						CHANNELS 3  Xrotation Yrotation Zrotation
						End Site
						{
							OFFSET	1	0	0
						}
					}
				}
			}
		}
	}
	JOINT right_hip
	{
		OFFSET	82.8	-127.5	0.300001
		CHANNELS 3  Xrotation Yrotation Zrotation
		JOINT right_knee
		{
			OFFSET	28.2	-396.7	2.2
			CHANNELS 3  Xrotation Yrotation Zrotation
			JOINT right_ankle
			{
				OFFSET	11.7	-411.3	35.4
				CHANNELS 3  Xrotation Yrotation Zrotation
				JOINT right_toes
				{
					OFFSET	0	-60	-88.6
					CHANNELS 3  Xrotation Yrotation Zrotation
					JOINT right_foot_ee
					{
						OFFSET	22.5	-16.5	-42.2
						CHANNELS 3  Xrotation Yrotation Zrotation
						End Site
						{
							OFFSET	1	0	0
						}
					}
				}
			}
		}
	}
}
MOTION
Frames: 15
Frame Time: 0.02
1805.99 610.961 -1055.34 -127.717 -55.1709 -136.252 10.4871 -0.165058 -0.590109 10.4873 -0.127174 -0.599416 10.4882 -0.109926 -0.602817 10.4877 -0.203749 -0.577892 -16.7062 4.29449 2.50496 -16.7363 6.82873 3.89503 -0.0 0.0 -0.0 8.12586 -15.5325 15.543 -10.2047 -9.15635 60.3002 2.40977 -50.0392 1.12483 -1.38714 -0.0509356 0.169813 3.04904 -23.5788 9.95098 -0.0 0.0 -0.0 7.74511 -7.02111 -14.874 -49.0162 16.6517 -62.218 0.254409 7.1831 -0.0159684 -57.1797 4.93424 -5.00476 7.35883 26.8463 -38.0463 0.0 0.0 0.0 22.7271 15.5981 2.84906 -29.8029 0.0515655 4.52212 29.7577 -4.09464 -3.92446 12.7006 -0.0 -0.0 -0.0 0.0 -0.0 62.5924 5.68917 1.00482 -15.6547 -0.322075 -2.37334 3.90552 -4.50531 0.567004 10.7729 -0.0 -0.0 0.0 0.0 0.0 
1834.35 611.78 -1041.81 -128.057 -54.4682 -137.28 10.9932 -0.397663 -0.480414 10.9933 -0.366287 -0.504744 10.9963 -0.356219 -0.511899 10.9962 -0.432593 -0.449218 -17.439 5.04146 3.62473 -17.4667 7.68901 5.26728 -0.0 0.0 -0.0 7.37713 -12.4714 14.0816 -8.98923 -3.11569 65.2449 2.05555 -45.513 0.862316 -7.47778 -0.322698 0.899167 3.6746 -28.4148 11.4465 -0.0 0.0 -0.0 7.5937 -8.99358 -14.4997 -51.4777 21.9205 -60.338 0.230649 6.51832 -0.0131341 -66.4471 6.09368 -5.25624 7.06812 26.9704 -35.7153 0.0 0.0 0.0 24.7469 16.7076 1.67514 -36.2485 -0.245509 5.46595 23.8528 -8.59524 -3.31454 26.0036 -0.0 -0.0 -0.0 0.0 -0.0 61.9002 4.93726 0.987293 -16.8532 -0.31983 -2.55721 9.46525 -3.93885 1.35112 4.74951 -0.0 -0.0 0.0 0.0 0.0 
1865.48 615.871 -1030.51 -132.38 -53.8803 -142.069 10.6029 -0.251686 -0.339996 10.6029 -0.229542 -0.355322 10.6043 -0.219987 -0.361315 10.6042 -0.274289 -0.322039 -18.4444 5.91561 3.0048 -18.5363 9.78091 5.116 -0.0 0.0 -0.0 7.72435 -10.4324 14.91 -10.7244 -3.83255 64.1516 1.73422 -40.6617 0.642612 -8.5385 -0.377901 1.02309 3.24681 -28.831 8.47835 -0.0 0.0 -0.0 7.93147 -7.91235 -15.1773 -50.8483 23.7573 -60.1806 0.211452 5.9799 -0.0110446 -71.8801 6.78614 -5.31517 7.09914 23.1879 -39.0363 0.0 0.0 0.0 24.3273 13.785 2.7757 -40.6655 -0.509645 6.09118 20.5383 -6.25645 -2.87437 31.5047 -0.0 -0.0 -0.0 0.0 -0.0 61.7261 5.63991 -0.15165 -21.9122 -0.26802 -3.33146 10.276 -7.11893 1.45936 -1.12635 0.0 0.0 0.0 0.0 0.0 
1893.98 617.855 -1015.11 -133.746 -53.5998 -143.598 10.7303 -0.358537 -0.175139 10.7302 -0.346666 -0.197599 10.7315 -0.341733 -0.206013 10.7317 -0.36998 -0.149457 -19.1457 5.51007 3.22969 -19.2197 8.92798 5.2262 -0.0 0.0 -0.0 7.48396 -8.13863 14.4735 -12.749 -1.19438 66.2026 1.62145 -38.7691 0.570545 -7.12144 -0.304671 0.857312 2.95668 -28.8757 6.60817 -0.0 0.0 -0.0 8.2817 -6.74919 -15.896 -49.3412 24.3723 -60.8802 0.201425 5.69824 -0.0100244 -72.6021 6.87842 -5.31802 6.67622 22.8822 -35.9189 0.0 0.0 0.0 27.285 9.45076 3.00709 -47.906 -1.04473 7.06733 19.2999 -9.85318 -2.76442 36.024 -0.0 -0.0 -0.0 0.0 -0.0 59.6875 4.0102 -0.244467 -23.0737 -0.246489 -3.50839 14.7898 -7.61474 2.06505 -1.28319 0.0 0.0 0.0 0.0 0.0 
1923.78 625.86 -994.94 -136.141 -53.3642 -145.616 10.6175 -0.126174 -0.200448 10.6176 -0.113163 -0.20807 10.6179 -0.107624 -0.210988 10.6179 -0.139595 -0.191343 -19.9139 6.05283 3.31123 -20.0217 9.98425 5.60116 -0.0 0.0 -0.0 8.17152 -5.39633 15.9643 -20.331 -4.31831 62.4169 1.74554 -40.8461 0.650004 -5.42314 -0.222354 0.656356 3.27079 -28.699 8.70239 -0.0 0.0 -0.0 8.76099 -8.00614 -16.7188 -48.6986 23.5524 -59.5502 0.283374 7.99087 -0.0197928 -74.5285 7.12463 -5.31989 6.44338 19.9338 -36.245 0.0 0.0 0.0 27.7764 4.73275 3.39458 -49.0331 -1.13901 7.213 19.3052 -15.1738 -2.85828 37.9796 -0.0 -0.0 -0.0 0.0 -0.0 56.8276 6.30406 -1.6704 -24.7705 -0.208594 -3.76602 19.5442 -10.8086 2.67944 -2.83897 0.0 0.0 0.0 0.0 0.0 
1944.01 621.744 -983.653 -136.11 -53.5859 -144.924 10.6275 -0.110332 -0.201245 10.6276 -0.0973031 -0.207858 10.6279 -0.0918115 -0.210341 10.6278 -0.123879 -0.193202 -21.273 5.43018 1.3477 -21.4197 9.82247 3.65029 -0.0 0.0 -0.0 7.06356 -4.04017 13.6892 -12.9434 -1.91622 67.1367 1.04447 -27.3563 0.254198 -9.82727 -0.448051 1.17227 2.03185 -23.9714 3.09882 -0.0 0.0 -0.0 8.27781 -3.78056 -16.0295 -46.5463 25.9103 -63.3644 0.306746 8.64036 -0.0231731 -77.0475 7.44622 -5.30975 4.70272 16.0621 -25.3894 0.0 0.0 0.0 29.7876 4.93565 1.83111 -53.9288 -1.58128 7.82354 15.2721 -17.5909 -2.34961 39.097 -0.0 -0.0 -0.0 0.0 -0.0 57.0356 5.44402 -1.86215 -28.1578 -0.110205 -4.27647 22.0023 -10.1135 2.98036 -2.25536 0.0 0.0 0.0 0.0 0.0 
1962.06 621.068 -981.64 -136.356 -52.1146 -145.334 10.8697 -0.130404 -0.212599 10.8697 -0.116612 -0.220466 10.8701 -0.111727 -0.222982 10.8701 -0.14554 -0.202538 -19.2849 5.22965 -1.74831 -19.4423 10.9832 0.507746 -0.0 0.0 -0.0 6.54152 -2.49612 12.6544 -13.516 -0.0375174 69.3966 0.956749 -25.358 0.215249 -12.3406 -0.594456 1.45854 1.89313 -15.3462 6.18099 -0.0 0.0 -0.0 8.61634 0.112116 -16.8312 -44.8477 28.2889 -64.4558 0.28417 8.01303 -0.0199036 -76.8245 7.41779 -5.31122 4.12055 17.7615 -20.2846 0.0 0.0 0.0 34.5375 3.6022 1.9846 -59.245 -2.11901 8.44174 16.0579 -19.6987 -2.50591 36.0248 -0.0 -0.0 -0.0 0.0 -0.0 56.0257 0.766079 -0.764411 -26.6907 -0.156528 -4.05608 23.55 -3.39362 3.16645 -4.06335 0.0 0.0 0.0 0.0 0.0 
1988.47 632.851 -965.246 -136.451 -51.9159 -144.697 10.6682 -0.0200084 -0.130739 10.6682 -0.0116486 -0.131747 10.6682 -0.00827775 -0.132001 10.6682 -0.029021 -0.129038 -17.9263 3.78464 -3.48399 -17.995 9.17314 -1.80629 -0.0 0.0 -0.0 6.86433 1.93 13.3193 -13.1216 2.4878 68.0531 0.678648 -18.5818 0.111023 -15.1074 -0.770015 1.76601 1.65152 -15.6627 4.41352 -0.0 0.0 -0.0 9.20196 -1.03325 -17.9773 -45.1558 29.755 -63.7692 0.288912 8.14495 -0.02057 -77.9823 7.56534 -5.30236 2.07194 8.54478 -10.4167 0.0 0.0 0.0 40.372 0.00315384 2.33858 -65.332 -2.80241 9.08556 15.6141 -16.4148 -2.37609 35.2453 -0.0 -0.0 -0.0 0.0 -0.0 51.7436 1.29031 -1.87138 -22.1847 -0.26329 -3.37301 23.3015 -3.82735 3.1357 -2.71272 0.0 0.0 0.0 0.0 0.0 
2002.6 633.488 -955.348 -138.596 -51.1618 -147.243 10.5624 0.01374 0.0266671 10.5624 0.0120152 0.0274874 10.5624 0.0112575 0.0278063 10.5624 0.0155077 0.0256794 -19.1678 4.0331 -3.52759 -19.2596 9.61094 -1.652 -0.0 0.0 -0.0 6.91773 1.45149 13.4262 -18.8183 -2.62056 66.0554 0.672559 -18.4264 0.109091 -14.2289 -0.712659 1.66929 2.98506 -10.5616 15.8444 -0.0 0.0 -0.0 9.56042 -0.744464 -18.7177 -45.2386 34.277 -62.4447 0.358827 10.0794 -0.031644 -78.8137 7.67115 -5.29415 1.23026 5.81206 -5.84363 0.0 0.0 0.0 48.8454 -2.02626 1.56539 -75.5731 -4.09409 9.99503 20.312 -16.3331 -3.01708 28.4843 -0.0 -0.0 -0.0 0.0 -0.0 49.2304 1.07011 -2.22335 -20.6081 -0.287914 -3.13234 25.6007 -2.02939 3.41079 -1.63484 0.0 0.0 0.0 0.0 0.0 
2019.93 635.776 -952.806 -138.266 -51.8731 -146.718 10.2221 0.0213368 0.0983909 10.2221 0.0150327 0.0995492 10.2221 0.0117055 0.0999951 10.2221 0.0273509 0.0968915 -18.0301 1.90395 -3.57167 -18.0333 5.59949 -2.60662 -0.0 0.0 -0.0 5.65904 3.50356 11.0053 -14.7339 -0.443403 69.4685 0.426929 -11.9416 0.0446524 -14.7202 -0.744552 1.72349 3.15929 -15.611 14.6757 -0.0 0.0 -0.0 10.2014 2.2542 -20.1727 -46.9829 35.5291 -58.7733 0.547707 15.1801 -0.0729833 -75.7827 7.28483 -5.31662 0.372325 3.6382 -0.965281 0.0 0.0 0.0 52.0183 -3.45971 1.33975 -78.3965 -4.47691 10.2041 17.8251 -15.7857 -2.6709 30.8327 -0.0 -0.0 -0.0 0.0 -0.0 46.8898 -1.3065 -1.14233 -18.2023 -0.312702 -2.76407 25.7733 1.47069 3.45367 -3.69404 0.0 0.0 0.0 0.0 0.0 
2039.67 640.076 -942.328 -138.719 -51.5356 -147.645 10.2012 -0.0408493 0.26992 10.2012 -0.0579421 0.266774 10.2009 -0.0669028 0.264669 10.2008 -0.0242638 0.271913 -19.0528 2.47973 -3.0064 -19.0823 6.35311 -1.80509 -0.0 0.0 -0.0 5.55226 5.62179 10.8213 -19.7333 -2.58994 68.7852 0.428525 -11.985 0.0449832 -20.3996 -1.14638 2.3292 3.44288 -10.919 18.9077 -0.0 0.0 -0.0 9.69536 1.54967 -19.0884 -39.1753 36.3708 -59.53 0.639668 17.5821 -0.0989245 -78.9708 7.69112 -5.29242 0.127256 -2.95905 -2.08437 0.0 0.0 0.0 52.9636 -5.31162 1.58922 -78.49 -4.48976 10.2107 18.9448 -16.825 -2.84493 27.3207 -0.0 -0.0 -0.0 0.0 -0.0 44.6042 -1.42041 -0.811033 -16.8589 -0.31981 -2.55808 27.3105 1.93781 3.63222 -4.02205 0.0 0.0 0.0 0.0 0.0 
2060.13 640.338 -936.616 -138.733 -51.0881 -147.635 10.172 0.00899559 0.399174 10.1721 -0.0164229 0.398938 10.1718 -0.0300648 0.398142 10.1715 0.0331912 0.397894 -19.234 -0.31675 -2.09429 -19.222 0.481971 -2.07659 -0.0 0.0 -0.0 5.60872 8.7425 10.9225 -23.0347 -5.57402 67.4099 0.428331 -11.9797 0.044943 -20.1245 -1.12554 2.3008 3.58312 -10.4708 20.1199 -0.0 0.0 -0.0 9.42497 2.20139 -18.5463 -37.9816 38.5243 -55.3316 0.971182 25.6915 -0.221468 -78.6543 7.65088 -5.29584 0.257461 -0.637608 -1.98523 0.0 0.0 0.0 54.2482 -5.05806 2.17678 -77.9904 -4.42123 10.1752 19.5857 -15.8134 -2.90908 25.9742 -0.0 -0.0 -0.0 0.0 -0.0 43.7928 0.625226 -0.763147 -18.1813 -0.312851 -2.76085 29.6531 0.0833975 3.87381 -0.28259 0.0 0.0 0.0 0.0 0.0 
2089.38 648.169 -927.885 -140.855 -51.361 -150.018 9.96185 0.199429 0.574947 9.96202 0.16244 0.586472 9.96327 0.140131 0.592198 9.96285 0.231898 0.562636 -18.2599 -1.10457 -3.31608 -18.2289 -0.339983 -3.51963 -0.0 0.0 -0.0 5.67756 13.9293 10.9596 -25.9604 -7.34837 64.5662 0.422737 -11.8277 0.043789 -22.444 -1.30551 2.5372 4.13089 -12.663 23.0052 -0.0 0.0 -0.0 9.49698 3.47767 -18.727 -37.2134 39.478 -56.0594 0.990235 26.129 -0.229793 -79.0664 7.70328 -5.29134 -0.604537 -8.56532 0.345547 0.0 0.0 0.0 56.8875 -2.50845 2.79479 -74.1121 -3.90015 9.87955 16.161 -21.6195 -2.56611 20.616 -0.0 -0.0 -0.0 0.0 -0.0 40.117 2.69723 -0.0728381 -17.6244 -0.316352 -2.67548 29.3744 0.228555 3.84489 4.40271 -0.0 -0.0 0.0 0.0 0.0 
2115.81 653.162 -914.632 -141.461 -52.2099 -150.044 9.50673 0.222537 0.923261 9.50719 0.163339 0.935549 9.50885 0.120358 0.942043 9.50771 0.26762 0.911216 -18.311 -4.58656 -3.43558 -18.3355 -6.98185 -4.98115 -0.0 0.0 -0.0 5.93368 16.3752 11.2999 -29.8727 -8.28912 62.5843 0.454719 -12.6945 0.0505813 -24.6357 -1.48425 2.75376 3.59378 -10.7646 20.0573 -0.0 0.0 -0.0 9.20202 2.50739 -18.0903 -38.6778 41.7455 -54.883 1.12827 29.2003 -0.293904 -80.6219 7.90068 -5.27094 -0.92054 -13.4757 0.235315 0.0 0.0 0.0 59.0266 -1.8217 1.59557 -68.0391 -3.12765 9.34805 10.6372 -27.4148 -1.84687 17.332 -0.0 -0.0 -0.0 0.0 -0.0 38.6413 2.33351 0.485965 -21.4029 -0.276328 -3.25376 28.4404 0.355361 3.74418 7.34051 -0.0 -0.0 0.0 0.0 0.0 
2133.42 653.804 -905.477 -140.687 -52.7406 -149.063 9.66076 0.126361 1.01838 9.66134 0.0613067 1.02435 9.66119 0.0170823 1.02604 9.65977 0.178904 1.01047 -18.5242 -5.37404 -3.1685 -18.5878 -8.65603 -5.05995 -0.0 0.0 -0.0 5.53056 17.4924 10.6159 -32.5905 -8.29821 62.5018 0.491557 -13.6856 0.0589872 -26.0396 -1.60307 2.88887 3.59776 -11.2916 19.8349 -0.0 0.0 -0.0 8.94236 1.06552 -17.52 -36.8007 43.8643 -55.2021 1.17011 30.0973 -0.314606 -81.0883 7.95974 -5.26376 -1.21507 -14.3659 1.67996 0.0 0.0 0.0 59.3485 -0.33018 0.961832 -65.358 -2.80547 9.08815 9.04766 -28.2908 -1.59912 14.8171 -0.0 -0.0 -0.0 0.0 -0.0 37.1402 0.839665 1.02448 -21.031 -0.281959 -3.19696 29.3242 0.127112 3.83871 6.61732 -0.0 -0.0 0.0 0.0 0.0 
